<?xml version="1.0" standalone="no"?>
<svg version="1.0" xmlns="http://www.w3.org/2000/svg"
 width="1200.000000pt" height="1200.000000pt" viewBox="0 0 1200.000000 1200.000000"
 preserveAspectRatio="xMidYMid meet">

<g transform="translate(0.000000,1200.000000) scale(0.100000,-0.100000)"
fill="#000000" stroke="none">
<path d="M7035 10405 c-133 -22 -257 -60 -371 -114 -334 -159 -510 -377 -659
-811 -96 -282 -153 -556 -209 -1020 -42 -348 -59 -658 -161 -3060 -81 -1894
-130 -2890 -150 -2995 -16 -91 -51 -150 -105 -178 -73 -38 -178 -1 -400 138
-296 186 -360 211 -505 194 -235 -26 -395 -229 -395 -501 0 -267 142 -414 448
-464 130 -22 395 -14 535 16 384 81 654 296 845 675 222 440 352 1024 407
1825 45 669 154 3653 175 4805 6 330 15 629 21 664 28 180 122 242 288 192 85
-26 157 -67 288 -164 117 -87 172 -120 244 -146 76 -27 115 -32 189 -22 112
15 177 46 251 120 104 103 149 216 149 367 0 236 -136 398 -389 466 -101 27
-365 34 -496 13z"/>
</g>
</svg>
